<svg width="40" height="40" viewBox="0 0 40 40" fill="none" xmlns="http://www.w3.org/2000/svg">
<rect width="40" height="40" rx="20" fill="#222325"/>
<g clip-path="url(#clip0_443_17795)">
<path d="M28.5716 14.6967C27.9287 14.9646 27.2858 15.1789 26.5358 15.2324C27.2858 14.8039 27.8216 14.1074 28.0894 13.3039C27.393 13.7324 26.643 14.0003 25.8394 14.161C25.1966 13.4646 24.2858 13.036 23.3216 13.036C21.393 13.036 19.7858 14.5896 19.7858 16.5717C19.7858 16.8396 19.8394 17.1074 19.893 17.3753C16.9466 17.2146 14.3751 15.8217 12.6073 13.6789C12.2858 14.2146 12.1251 14.8039 12.1251 15.4467C12.1251 16.6789 12.768 17.7503 13.6787 18.3932C13.0894 18.3932 12.5537 18.2324 12.0716 17.9646V18.0182C12.0716 19.7324 13.3037 21.1253 14.9108 21.4467C14.5894 21.5003 14.3216 21.5539 14.0001 21.5539C13.7858 21.5539 13.5716 21.5539 13.3573 21.5003C13.7858 22.8932 15.1251 23.911 16.6251 23.9646C15.4466 24.9289 13.893 25.4646 12.2323 25.4646C11.9644 25.4646 11.643 25.4646 11.3751 25.411C12.9823 26.3753 14.8573 26.9646 16.8394 26.9646C23.3216 26.9646 26.8573 21.6074 26.8573 16.9467C26.8573 16.786 26.8573 16.6253 26.8573 16.5182C27.5001 15.9824 28.0894 15.3932 28.5716 14.6967Z" fill="#808080"/>
</g>
<defs>
<clipPath id="clip0_443_17795">
<rect width="17.1429" height="17.1429" fill="white" transform="translate(11.4286 11.4286)"/>
</clipPath>
</defs>
</svg>
