<svg width="40" height="40" viewBox="0 0 40 40" fill="none" xmlns="http://www.w3.org/2000/svg">
<rect width="40" height="40" rx="20" fill="#222325"/>
<g clip-path="url(#clip0_443_17790)">
<path d="M18.4464 18.6203C18.2076 18.6399 17.9849 18.7487 17.8225 18.9249C17.6602 19.1012 17.5701 19.3321 17.5701 19.5717C17.5701 19.8113 17.6602 20.0422 17.8225 20.2185C17.9849 20.3947 18.2076 20.5035 18.4464 20.5231C18.5666 20.5187 18.6848 20.4906 18.794 20.4403C18.9032 20.39 19.0014 20.3185 19.0829 20.2301C19.1644 20.1416 19.2276 20.0379 19.2687 19.9249C19.3099 19.8119 19.3283 19.6918 19.3229 19.5717C19.3288 19.4515 19.3107 19.3312 19.2696 19.2181C19.2286 19.1049 19.1655 19.001 19.0839 18.9124C19.0024 18.8239 18.904 18.7524 18.7945 18.7023C18.6851 18.6521 18.5668 18.6243 18.4464 18.6203ZM21.575 18.6203C21.3835 18.6045 21.1917 18.6469 21.0247 18.742C20.8577 18.837 20.7233 18.9802 20.6389 19.1529C20.5546 19.3255 20.5244 19.5196 20.5522 19.7097C20.58 19.8999 20.6645 20.0772 20.7947 20.2185C20.9248 20.3598 21.0946 20.4586 21.2819 20.5018C21.4691 20.5451 21.665 20.5309 21.844 20.461C22.023 20.3911 22.1767 20.2688 22.2851 20.1102C22.3935 19.9515 22.4514 19.7639 22.4514 19.5717C22.4569 19.4517 22.4386 19.3319 22.3975 19.219C22.3565 19.1061 22.2935 19.0025 22.2123 18.9141C22.131 18.8257 22.033 18.7542 21.924 18.7037C21.8151 18.6533 21.6972 18.625 21.5772 18.6203H21.575Z" fill="#808080"/>
<path d="M25.7429 11.4286H14.2572C14.0257 11.4292 13.7965 11.4753 13.5829 11.5645C13.3693 11.6537 13.1753 11.7841 13.0121 11.9483C12.8489 12.1125 12.7197 12.3072 12.6318 12.5214C12.544 12.7356 12.4992 12.965 12.5 13.1964V24.7829C12.4992 25.0144 12.544 25.2438 12.6318 25.4579C12.7197 25.6721 12.8489 25.8668 13.0121 26.031C13.1753 26.1952 13.3693 26.3256 13.5829 26.4148C13.7965 26.504 14.0257 26.5502 14.2572 26.5507H23.9772L23.5229 24.965L24.62 25.9829L25.6572 26.9429L27.5 28.5714V13.1964C27.5009 12.965 27.4561 12.7356 27.3682 12.5214C27.2803 12.3072 27.1511 12.1125 26.9879 11.9483C26.8247 11.7841 26.6307 11.6537 26.4171 11.5645C26.2035 11.4753 25.9744 11.4292 25.7429 11.4286V11.4286ZM22.4343 22.625C22.4343 22.625 22.1257 22.2564 21.8686 21.9286C22.4903 21.7833 23.0407 21.4228 23.4222 20.9107C23.1137 21.116 22.7831 21.2856 22.4364 21.4164C22.0377 21.5867 21.6207 21.7103 21.1936 21.785C20.4595 21.9202 19.7066 21.9173 18.9736 21.7764C18.5432 21.6922 18.1215 21.5689 17.7136 21.4079C17.3691 21.2743 17.0401 21.1041 16.7322 20.9C17.099 21.4017 17.6295 21.7595 18.2322 21.9114C17.975 22.2372 17.6579 22.6229 17.6579 22.6229C17.1487 22.6366 16.644 22.525 16.1881 22.2978C15.7322 22.0706 15.3392 21.7348 15.0436 21.32C15.0707 19.5825 15.492 17.8738 16.2757 16.3229C16.9666 15.7803 17.809 15.4658 18.6864 15.4229L18.7722 15.5257C17.9474 15.7298 17.1777 16.1132 16.5179 16.6486C16.5179 16.6486 16.7064 16.5457 17.0236 16.4C17.6404 16.1186 18.2978 15.9363 18.9714 15.86C19.0194 15.8501 19.0682 15.8443 19.1172 15.8429C19.6915 15.768 20.2728 15.7623 20.8486 15.8257C21.754 15.9291 22.6305 16.2087 23.4286 16.6486C22.8022 16.1387 22.0748 15.7677 21.2943 15.56L21.4143 15.4229C22.2917 15.4658 23.1341 15.7803 23.825 16.3229C24.6087 17.8738 25.03 19.5825 25.0572 21.32C24.7594 21.7348 24.3648 22.0705 23.9076 22.2979C23.4505 22.5254 22.9447 22.6377 22.4343 22.625Z" fill="#808080"/>
</g>
<defs>
<clipPath id="clip0_443_17790">
<rect width="17.1429" height="17.1429" fill="white" transform="translate(11.4286 11.4286)"/>
</clipPath>
</defs>
</svg>
