<svg width="40" height="40" viewBox="0 0 40 40" fill="none" xmlns="http://www.w3.org/2000/svg">
<rect width="40" height="40" rx="20" fill="#222325"/>
<g clip-path="url(#clip0_443_17809)">
<path d="M28.5367 13.2334C28.5229 13.1701 28.4926 13.1117 28.4488 13.0639C28.4051 13.0162 28.3494 12.981 28.2876 12.9618C28.0625 12.9174 27.8296 12.9341 27.6131 13.01C27.6131 13.01 12.5933 18.4084 11.7356 19.0063C11.5502 19.1348 11.4886 19.2093 11.4581 19.2977C11.3097 19.723 11.7715 19.9105 11.7715 19.9105L15.6426 21.1722C15.708 21.1835 15.7751 21.1794 15.8386 21.1604C16.7194 20.6043 24.6988 15.5654 25.1601 15.3961C25.2324 15.3741 25.286 15.3961 25.2742 15.4497C25.0856 16.0957 18.1947 22.2195 18.1567 22.257C18.1382 22.2721 18.1237 22.2916 18.1143 22.3136C18.105 22.3356 18.1011 22.3596 18.1031 22.3834L17.7431 26.1607C17.7431 26.1607 17.592 27.3393 18.7685 26.1607C19.6026 25.3255 20.4029 24.6345 20.8042 24.2986C22.1354 25.2173 23.5679 26.2336 24.1856 26.7629C24.2892 26.8635 24.4121 26.9423 24.5469 26.9944C24.6816 27.0465 24.8255 27.0709 24.9699 27.0661C25.5592 27.0436 25.7199 26.3991 25.7199 26.3991C25.7199 26.3991 28.4563 15.3875 28.5485 13.9116C28.557 13.767 28.5694 13.6743 28.5704 13.5752C28.5753 13.4602 28.5639 13.3452 28.5367 13.2334V13.2334Z" fill="#808080"/>
</g>
<defs>
<clipPath id="clip0_443_17809">
<rect width="17.1429" height="17.1429" fill="white" transform="translate(11.4286 11.4286)"/>
</clipPath>
</defs>
</svg>
