<svg width="40" height="40" viewBox="0 0 40 40" fill="none" xmlns="http://www.w3.org/2000/svg">
<rect width="40" height="40" rx="20" fill="#222325"/>
<g clip-path="url(#clip0_443_17799)">
<path d="M20.0001 22.7145C21.4991 22.7145 22.7143 21.4992 22.7143 20.0002C22.7143 18.5011 21.4991 17.2859 20.0001 17.2859C18.501 17.2859 17.2858 18.5011 17.2858 20.0002C17.2858 21.4992 18.501 22.7145 20.0001 22.7145Z" fill="#808080"/>
<path d="M23.3921 11.8573H16.6064C13.9878 11.8573 11.8571 13.9887 11.8571 16.608V23.3937C11.8571 26.0123 13.9884 28.143 16.6077 28.143H23.3934C26.0121 28.143 28.1428 26.0116 28.1428 23.3923V16.6066C28.1428 13.988 26.0114 11.8573 23.3921 11.8573ZM19.9999 24.0716C17.7545 24.0716 15.9285 22.2455 15.9285 20.0002C15.9285 17.7548 17.7545 15.9287 19.9999 15.9287C22.2453 15.9287 24.0713 17.7548 24.0713 20.0002C24.0713 22.2455 22.2453 24.0716 19.9999 24.0716ZM24.7499 15.9287C24.3753 15.9287 24.0713 15.6247 24.0713 15.2502C24.0713 14.8756 24.3753 14.5716 24.7499 14.5716C25.1245 14.5716 25.4285 14.8756 25.4285 15.2502C25.4285 15.6247 25.1245 15.9287 24.7499 15.9287Z" fill="#808080"/>
</g>
<defs>
<clipPath id="clip0_443_17799">
<rect width="17.1429" height="17.1429" fill="white" transform="translate(11.4286 11.4286)"/>
</clipPath>
</defs>
</svg>
